<svg width="24" height="24" viewBox="0 0 24 24" fill="none" xmlns="http://www.w3.org/2000/svg">
<path d="M18.3749 17.0484L17.3333 7.24845C17.3333 6.63233 16.856 6.1333 16.2667 6.1333H12H7.73334C7.14401 6.1333 6.66667 6.63233 6.66667 7.24845L5.62507 17.0484C5.60961 17.1248 5.60001 17.2034 5.60001 17.2848C5.60001 17.9009 6.07734 18.4 6.66667 18.4H12H17.3333C17.9227 18.4 18.4 17.9009 18.4 17.2848C18.4 17.2034 18.3904 17.1248 18.3749 17.0484ZM14.6667 8.86988V9.47876C14.6667 11.016 13.4704 12.2666 12 12.2666C10.5296 12.2666 9.33334 11.016 9.33334 9.47876V8.86988C9.02347 8.75502 8.80001 8.44836 8.80001 8.08482C8.80001 7.62314 9.15841 7.24845 9.60001 7.24845C10.0416 7.24845 10.4 7.62314 10.4 8.08482V9.47876C10.4 10.401 11.1179 11.1515 12 11.1515C12.8821 11.1515 13.6 10.401 13.6 9.47876V8.08482C13.6 7.62314 13.9584 7.24845 14.4 7.24845C14.8416 7.24845 15.2 7.62314 15.2 8.08482C15.2 8.44836 14.9765 8.75502 14.6667 8.86988Z" fill="#F9F9F9"/>
</svg>
