<svg width="24" height="23" viewBox="0 0 24 23" fill="none">
<path d="M23.4558 20.5187L23.4583 20.542L23.4629 20.565C23.4867 20.6823 23.5 20.796 23.5 20.9091C23.5 21.8094 22.8081 22.5 22 22.5H12H2C1.19186 22.5 0.5 21.8094 0.5 20.9091C0.5 20.796 0.513314 20.6823 0.537055 20.565L0.541717 20.542L0.544199 20.5187L2.4972 2.14375L2.5 2.11741V2.09091C2.5 1.19065 3.19186 0.5 4 0.5H12H20C20.8081 0.5 21.5 1.19065 21.5 2.09091V2.11741L21.5028 2.14375L23.4558 20.5187ZM17.5 6.27273V5.44368C18.1009 5.08516 18.5 4.41815 18.5 3.65909C18.5 2.53849 17.6249 1.59091 16.5 1.59091C15.3751 1.59091 14.5 2.53849 14.5 3.65909V6.27273C14.5 7.74695 13.3571 8.90909 12 8.90909C10.6429 8.90909 9.5 7.74695 9.5 6.27273V3.65909C9.5 2.53849 8.62486 1.59091 7.5 1.59091C6.37514 1.59091 5.5 2.53849 5.5 3.65909C5.5 4.41815 5.89908 5.08516 6.5 5.44368V6.27273C6.5 9.41001 8.94614 12 12 12C15.0539 12 17.5 9.41001 17.5 6.27273Z" stroke="#9B9B9B"/>
</svg>
